PathFileType	4	(X/Y/Z)	Apose_0-50.trc
DataRate	CameraRate	NumFrames	NumMarkers	Units	OrigDataRate	OrigDataStartFrame	OrigNumFrames
30	30	8	22	m	30	30	50
Frame#	Time	Hip			RHip			RKnee			RAnkle			RBigToe			RSmallToe			RHeel			LHip			LKnee			LAnkle			LBigToe			LSmallToe			LHeel			Neck			Head			Nose			RShoulder			RElbow			RWrist			LShoulder			LElbow			LWrist		
		X1	Y1	Z1	X2	Y2	Z2	X3	Y3	Z3	X4	Y4	Z4	X5	Y5	Z5	X6	Y6	Z6	X7	Y7	Z7	X8	Y8	Z8	X9	Y9	Z9	X10	Y10	Z10	X11	Y11	Z11	X12	Y12	Z12	X13	Y13	Z13	X14	Y14	Z14	X15	Y15	Z15	X16	Y16	Z16	X17	Y17	Z17	X18	Y18	Z18	X19	Y19	Z19	X20	Y20	Z20	X21	Y21	Z21	X22	Y22	Z22
31	1.0333333333333334	0.04283041855581647	0.9204915966884929	0.35440064283069644	0.03471416931590048	0.8865598815375859	0.46782243478130964	0.007058555641096026	0.5079985357304426	0.5007281684213131	-0.008873732542260877	0.10694465791392595	0.5165618477839726	0.2014511564144681	0.043536082284924144	0.5631262473114234	0.14264617901002674	0.03200091643670756	0.6180863166035404	-0.04762183590785572	0.046175537001355654	0.505882058084419	0.0350356633998015	0.8862558059004508	0.24462327648220367	0.02130126785465586	0.5086839807174894	0.22290748421380488	0.005410717304286353	0.11154491606537467	0.20978692445268832	0.2139504176090663	0.04749781985337008	0.18113442488349096	0.16247646256771947	0.04354223079292013	0.12941397498839868	-0.0327745910260724	0.048425638689249	0.22709258433022425	0.06784035676960527	1.5933648311752175	0.35438284554419874	0.2389725831128146	1.778815746963385	0.33489410158057265	0.23507071823520323	1.5903202547627788	0.3217096683412877	0.026744825928481163	1.497418844472901	0.5384441277738587	0.06433126169649495	1.2445508417093587	0.7145796733578282	0.1287387133925145	1.0519733989325457	0.8921634970165264	0.01936875641295242	1.4829601634936147	0.14058989605705613	0.026080398015195266	1.228086136865464	-0.0009572283532655226	0.07973111854349257	1.0215884881436825	-0.1466477833051829
32	1.0666666666666669	0.043316357553351025	0.9204991505191218	0.35445272301870995	0.035175889682531096	0.8864407169502854	0.46794956587727593	0.007395468749012335	0.5081153009703451	0.500880862938865	-0.008917315958585904	0.10703294216282488	0.5168191890866871	0.20152596952841784	0.043391405065695846	0.5630411663916585	0.14337366130081763	0.03484607432623422	0.6168225865855829	-0.04753270599787556	0.0460618452040855	0.505795427972177	0.03526214142057916	0.8861359668098521	0.24436707669859753	0.02181430500954955	0.5083692829053328	0.22284609112476264	0.005076607116595443	0.1110850679629372	0.20915627116915592	0.21377196073882482	0.04748800597897663	0.18139746312323868	0.16253695414581432	0.043642490090371924	0.1292302888909144	-0.03312823160329397	0.04785134087191068	0.22742051180189982	0.0668118567944063	1.5925305593246073	0.35389899019982185	0.23852957427276883	1.7800064151724388	0.3357003824786181	0.2345981057756294	1.5908298582829152	0.3212464210715536	0.02700955346476512	1.4973292979229238	0.538421366677322	0.06488698516614327	1.2445283582321804	0.7146928540723203	0.1293557264774056	1.0519189639170954	0.891998753596777	0.019413144039645742	1.4829870732494461	0.14050749585742703	0.02535430330760442	1.2282355367280893	-0.0007036981520209653	0.07909370861077338	1.022096004837956	-0.14643139195497656
33	1.1	0.04378057708532017	0.920543894026495	0.354555182239119	0.035750605004562196	0.8863718910495989	0.468051422656441	0.007698751303476603	0.508286672773498	0.5008116372684237	-0.009014379692399712	0.10706814742080495	0.5170295045572372	0.20161148308504415	0.043309626237297436	0.5627906026352809	0.14397528763575393	0.03759243498974679	0.6156342932485162	-0.04743249864537273	0.045714875363918064	0.5052292747350426	0.03557958492591995	0.886109800131359	0.24416187280914656	0.02198270047337079	0.5082707716100436	0.22284943107571437	0.004696755353153217	0.11084071698740423	0.20857996011276883	0.21370911795402128	0.047393650873405656	0.18180988114340205	0.16265961175399066	0.04367691211949057	0.12906680534688283	-0.03341293516846053	0.0474737167816964	0.2277203478304538	0.06586632652021931	1.5918217825062486	0.353298984939137	0.23775494382134293	1.781224158677542	0.33623044432467736	0.23486072294875066	1.591956979211891	0.32113108025570625	0.027138229094433135	1.497238907920643	0.5383096091535458	0.06568929212362916	1.244383846550172	0.7150112911066495	0.13002053060994248	1.0518553907742225	0.8920319588744443	0.019569376254525976	1.483134660938638	0.14047897476462398	0.024623113839825777	1.228355732271993	-0.00043474980556690345	0.0785922696851196	1.0223853179479883	-0.14645186053585166
34	1.1333333333333333	0.04427893608904888	0.9205524297244966	0.35471311584030496	0.03640887921555819	0.8863622530386345	0.4681085064129813	0.008006621381643153	0.5085584013727779	0.5006254212657262	-0.009173333138723908	0.10704437073831957	0.5172320661583765	0.20172791329666906	0.043339188671289865	0.5623974743665939	0.1443139212460287	0.039606179205585394	0.6147844785577149	-0.047520506154519054	0.04538376775251211	0.504599995854794	0.03601244486340841	0.8861632886297873	0.24400688333290302	0.021762174979388843	0.5084721619749815	0.22285995033700814	0.0043150273449555744	0.11086465484568386	0.2081797151108365	0.2138609726448409	0.04719934094042587	0.182379957509469	0.16285032858865442	0.04361667731582299	0.1289701455474638	-0.03353350270635169	0.04732737527668286	0.22788001784747397	0.06536751586075173	1.5915895435129261	0.3526796892988887	0.23635269700688788	1.7825975499679754	0.33645941071274027	0.23645122586498293	1.5942729310750376	0.32198452792625964	0.027128701030216043	1.4971564882018522	0.5380536625757387	0.06668112893252312	1.2441438887757803	0.7154380070170269	0.13077265646507186	1.051862826493564	0.8921933492799533	0.019713146748149862	1.4833561841941094	0.14052254778450193	0.024106810190649603	1.228418986353429	-0.00014416941436725615	0.07832970242212081	1.0223754854002116	-0.14666760702344844
35	1.1666666666666667	0.04482485126360214	0.9204540750078151	0.35493865662932866	0.037075907988744536	0.8864035789884737	0.46809338964213654	0.008332900777327878	0.5089743994561171	0.5004942821732913	-0.009402829182331289	0.10694318674942269	0.5174639458493702	0.20190292722294836	0.043452163034263365	0.5619303442077861	0.1443785209727707	0.040693627912482246	0.6143566021013037	-0.04787885450643025	0.04529801166498044	0.5043174385069371	0.036543175123428986	0.8862341998166623	0.24388767713106863	0.021252696325070056	0.5089547075671056	0.2228629790900032	0.003964629315523266	0.11115773661284836	0.20795477898312517	0.21423233742136286	0.046907261279537905	0.1830566128803173	0.16308931000750557	0.04347015146840572	0.12895831898392024	-0.03338908615002409	0.047340359359958895	0.22782430223450742	0.06522346955392441	1.591672695796702	0.35199658741213274	0.23399061599273108	1.7844147043277017	0.33652802856602526	0.24010954294358397	1.5984414267890468	0.32465936525230776	0.027080783305975922	1.4970891818073726	0.5376182933890974	0.06772948993649866	1.2438162488754652	0.7158531764627879	0.13159727539639782	1.051996459606614	0.8923538030962533	0.01976363247389365	1.4835772131799987	0.140671702122348	0.02394304846277312	1.2284287276852832	0.00018987788340956704	0.07832125135769837	1.0220965712685932	-0.14705976003853427
36	1.2	0.04541759954070435	0.9202357847467842	0.355246201946608	0.037680342341652	0.8864980747286649	0.46803888844794994	0.008714756711684151	0.5095191401507527	0.5005500168966015	-0.009703990895860623	0.10673229686596247	0.5177595221303534	0.20214306356580705	0.043557728496702745	0.5614654631849366	0.14426095920838655	0.0410309032985732	0.6143125104529209	-0.048427292566618776	0.04551356082092882	0.5044714185390152	0.03714346348386221	0.8862780326237677	0.24383017547715138	0.020656848706996033	0.5095916621935274	0.22290798831711348	0.003690172138991161	0.11163582726886691	0.2078411381593375	0.21471089624263245	0.04655054822312677	0.1836798007875824	0.1633323906673769	0.0432884799689944	0.12900357137047908	-0.033027570215512135	0.04742262849180808	0.22753136381704997	0.06535580624671886	1.5919193818465671	0.3512590857161056	0.23029041027836852	1.7870071982152258	0.33659860411918313	0.24643475313306595	1.6049779130907833	0.32987256806639614	0.027248387454694413	1.497066013167384	0.5370039988292369	0.06878096834346539	1.2434093415814431	0.7161927660511449	0.13244862687514913	1.0522006720585033	0.8924528607676063	0.01975850152084422	1.4837350968860554	0.14089149345348834	0.024126104117265686	1.2284085406367253	0.0005599942576085733	0.07850420916001793	1.0216757743786358	-0.14760255162778993
37	1.2333333333333334	0.04606021966425142	0.919946613604147	0.3556057732269565	0.038182034494270004	0.8866482377289644	0.4680490468616328	0.009172874062403032	0.5101045022300749	0.5007827725030267	-0.009997480853758026	0.10639334738371503	0.5181359300972361	0.20240654958078558	0.043577289156081105	0.5610703980346025	0.14411496802612275	0.040934179606386754	0.6145205251859771	-0.04897107857160391	0.0458850542485154	0.5048267746163869	0.037788829625122033	0.8863000136949558	0.24387796924533597	0.02016541268661455	0.5101842402377846	0.22304755814021693	0.0035362992926084606	0.11210588630791668	0.2078080356723863	0.2151478469342716	0.046172722456764625	0.18407200826985032	0.16355288296162868	0.043134134626646024	0.12907634474608526	-0.032647996438330315	0.047494162357325474	0.22707341290570113	0.06604520361997207	1.5926440359774894	0.3506776574822227	0.22505403394092613	1.7905809874438625	0.3367594192415305	0.25521288008827514	1.6138596688430522	0.3375218558570758	0.02791334919757441	1.4971312756642714	0.53628106802146	0.06988902891006128	1.2430029364271418	0.7163953064753926	0.1333015954857722	1.052294790279991	0.8924749913405977	0.019800663454894743	1.4837912464605112	0.1411153944726649	0.024533876611919428	1.2284105623217156	0.0009275390164550806	0.07878634101688765	1.02122611527066	-0.14821377885884648
38	1.2666666666666666	0.04673359706114214	0.9196701097268861	0.35595443304262986	0.03856158508030074	0.8868578953814107	0.46823166563554297	0.009631896080102684	0.5105995908737825	0.5010486173682214	-0.010167140884823971	0.10595609405924951	0.5185536245987724	0.20264284932717416	0.043502240011338816	0.5608063780417553	0.14409833093751415	0.04066225046180679	0.6147957409185334	-0.049261871881087556	0.04613341684726842	0.5050217688078017	0.03843495822343938	0.8863579804840586	0.244031157047655	0.01984930886523206	0.5105514801900444	0.22328201786872756	0.0035357047287759404	0.11234357227981648	0.20788010793869302	0.21548656720447804	0.045808494918155016	0.18415183432987142	0.16374635088319672	0.0430404072805392	0.12916936859530476	-0.032424694608830275	0.04747907076245734	0.22659344395584455	0.06745052669373061	1.5941576600479077	0.3504675088556297	0.2185230599099626	1.7950575554325974	0.3369805909461423	0.2648741907665508	1.624245687053587	0.34622240601652077	0.02914299537506894	1.4973064634495832	0.5355726314487658	0.07109278927382737	1.2427602356127425	0.7163470759964892	0.13420021317159125	1.052072462177396	0.8923822930833857	0.019904071725799676	1.4837359690698562	0.141368418748251	0.02500477842269213	1.2285200174526463	0.001239995554134583	0.07909558532717165	1.020650488203531	-0.14878741832217526
